# xmcd
#
# Track frame offsets:
#	150
#	15564
#	29351
#	41434
#	51415
#	71154
#	85554
#	109167
#	120975
#	128589
#	145567
#	155384
#	165045
#	172482
#	183144
#	196588
#	212148
#
# Disc length: 2936 seconds
#
# Revision: 1
# Processed by: cddbd v1.5.1PL0 Copyright (c) Steve Scherf et al.
# Submitted via: audiograbber 1.83.01
#
DISCID=d50b7611
DTITLE=Roosevelt Sykes - The Honeydripper's Duke's Mixture
DYEAR=2004
DGENRE=Blues
TTITLE0=Going Down Slow
TTITLE1=Ice Cream Freezer
TTITLE2=Loset My Boogie
TTITLE3=Sweet Georgia Brown
TTITLE4=St James Infirmary
TTITLE5=Honeysuckle Rose
TTITLE6=Basin Street Blues
TTITLE7=Rock Me
TTITLE8=A Woman Is In Demand
TTITLE9=Dirty Mother For You
TTITLE10=Deceived
TTITLE11=Night Time Is The Right Time
TTITLE12=Thanks, But No Thanks
TTITLE13=Your Feet's To Big
TTITLE14=Ain't Misbehavin
TTITLE15=Misty
TTITLE16=Flat Floot Floogie
EXTD=
EXTT0=
EXTT1=
EXTT2=
EXTT3=
EXTT4=
EXTT5=
EXTT6=
EXTT7=
EXTT8=
EXTT9=
EXTT10=
EXTT11=
EXTT12=
EXTT13=
EXTT14=
EXTT15=
EXTT16=
PLAYORDER=
